<svg width="385" height="69" viewBox="0 0 385 69" fill="none" xmlns="http://www.w3.org/2000/svg">
<g clip-path="url(#clip0_44_2240)">
<path d="M86.9512 0.422099V10.7971H91.6972L103.021 0.267578H116.332L99.7985 14.4394L117.701 28.9864H104.522L91.7193 18.0816H86.9733V28.9864H78.2759V0.422099H86.9733H86.9512Z" fill="#0D0D0D"/>
<path d="M127.59 0.419922V13.5763C127.678 18.0795 127.678 18.1236 127.899 19.2715C128.363 21.5451 130.04 22.0087 137.435 22.0087C143.418 22.0087 145.228 21.7438 146.155 20.7284C146.839 19.9999 147.016 19.2273 147.192 16.755C147.236 15.6954 147.281 14.2385 147.281 13.5984V0.419922H155.978V13.5763C155.845 20.0441 155.801 20.5076 155.536 22.5164C155.073 25.7614 152.887 28.035 149.62 28.7193C147.06 29.227 144.19 29.4036 137.546 29.4036C126.641 29.4036 123.197 28.8076 121.056 26.534C119.688 25.1212 119.224 23.4435 119.003 19.5584C118.944 18.7638 118.9 16.7697 118.871 13.5763V0.419922H127.568H127.59Z" fill="#0D0D0D"/>
<path d="M175.116 0.419922L190.061 21.6997H190.966L190.745 0.419922H199.597V28.9842H184.476L169.443 7.66033H168.494L168.715 28.9842H159.863V0.419922H175.094H175.116Z" fill="#0D0D0D"/>
<path d="M240.788 12.8045V13.5771C240.788 16.4027 240.611 21.2811 240.501 22.6497C240.148 25.983 238.316 27.9697 234.894 28.654C231.98 29.25 228.934 29.4266 221.23 29.4266C211.429 29.4266 208.383 29.0513 205.999 27.4178C204.409 26.3582 203.592 24.7689 203.261 21.9875C203.085 20.7513 202.996 17.9258 202.996 14.2835C202.996 6.53539 203.725 3.70987 206.131 2.03221C208.184 0.575298 212.731 0.0234375 222.731 0.0234375C233.349 0.0234375 237.3 0.751894 239.176 2.98141C240.368 4.39417 240.722 6.13805 240.766 10.3543H232.091C232.046 8.67661 231.958 8.34549 231.406 7.94816C230.545 7.35215 228.537 7.17555 222.025 7.17555C211.76 7.17555 211.716 7.2197 211.716 14.6146C211.716 19.4489 211.981 20.9058 212.908 21.6784C213.555 22.1935 216.565 22.4952 221.936 22.5835C230.06 22.5393 230.744 22.4952 231.737 21.7226C232.201 21.259 232.333 20.5747 232.333 18.5218H220.899V12.8266H240.81L240.788 12.8045Z" fill="#0D0D0D"/>
<path d="M285.157 0.419922V7.15262H263.657V12.5388H284.12L284.076 19.0949H263.657V28.9842H254.96V0.419922H285.135H285.157Z" fill="#0D0D0D"/>
<path d="M295.643 0.419922V13.5763C295.731 18.0795 295.731 18.1236 295.952 19.2715C296.415 21.5451 298.093 22.0087 305.488 22.0087C311.492 22.0087 313.28 21.7438 314.229 20.7284C314.914 19.9999 315.09 19.2273 315.245 16.755C315.289 15.6954 315.333 14.2385 315.333 13.5984V0.419922H324.03V13.5763C323.898 20.0441 323.854 20.5076 323.589 22.5164C323.125 25.7614 320.94 28.035 317.673 28.7193C315.112 29.227 312.243 29.4036 305.598 29.4036C294.694 29.4036 291.25 28.8076 289.109 26.534C287.74 25.1212 287.277 23.4435 287.056 19.5584C286.997 18.7638 286.953 16.7697 286.923 13.5763V0.419922H295.621H295.643Z" fill="#0D0D0D"/>
<path d="M86.9512 39.4715V49.8244H91.6972L102.999 39.2949H116.31L99.7985 53.4667L117.679 68.0137H104.5L91.6972 57.109H86.9512V68.0137H78.2538V39.4715H86.9512Z" fill="#0D0D0D"/>
<path d="M153.903 41.0154C156.088 42.6931 156.728 45.5627 156.728 53.7303C156.728 61.8978 156.088 64.8116 153.903 66.4893C151.718 68.1449 149.024 68.4539 137.215 68.4539C125.405 68.4539 122.535 68.1669 120.35 66.4893C118.12 64.7675 117.524 61.942 117.524 53.5537C117.524 45.1654 118.164 42.671 120.35 41.0154C122.535 39.3377 125.228 39.0508 137.126 39.0508C149.024 39.0508 151.718 39.3377 153.903 41.0154ZM128.826 46.843C126.685 47.3949 126.222 48.7194 126.222 54.5029C126.222 58.0569 126.509 59.2047 127.502 60.0215C128.65 60.9265 130.018 61.0369 137.215 61.0369C144.411 61.0369 145.647 60.8603 146.751 60.0215C147.722 59.2489 148.031 58.0127 148.031 54.547C148.031 50.4412 147.81 48.8077 147.038 47.8143C146.133 46.5782 145.161 46.4457 137.104 46.4457C131.188 46.4457 129.996 46.4899 128.804 46.843H128.826Z" fill="#0D0D0D"/>
<path d="M175.933 39.4707L184.41 58.0132L192.93 39.4707H208.603V68.0129H200.038L200.259 46.6449H198.802L188.052 68.0129H180.812L170.061 46.6449H168.516L168.737 68.0129H160.172V39.4707H175.933V39.4707Z" fill="#0D0D0D"/>
<path d="M212.577 39.4707H232.135C237.278 39.4707 238.117 39.5149 239.574 39.6694C245.225 40.442 246.814 42.7156 246.814 50.1547C246.814 56.3576 245.755 58.852 242.443 60.1324C240.523 60.8608 238.558 61.0374 232.223 61.0374H221.274V68.0129H212.577V39.4707V39.4707ZM232.135 53.8853C236.064 53.8412 236.24 53.8412 236.969 53.4659C237.83 53.0023 238.117 52.2297 238.117 50.1768C238.117 48.1239 237.786 47.3513 236.704 46.9319C236.108 46.667 236.02 46.667 232.135 46.6228H221.252V53.9074H232.135V53.8853Z" fill="#0D0D0D"/>
<path d="M258.778 39.4707V60.7504H279.065V68.035H249.662V39.4928H258.778V39.4707Z" fill="#0D0D0D"/>
<path d="M312.684 39.4707V46.1813H289.661V50.3313H311.536V56.6225H289.661V61.1699H312.861V68.0129H281.096V39.4707H312.684V39.4707Z" fill="#0D0D0D"/>
<path d="M349.063 39.4707V46.7553H336.348V68.035H327.231V46.7553H314.516V39.4707H349.063V39.4707Z" fill="#0D0D0D"/>
<path d="M385 39.4707V46.7553H372.285V68.035H363.169V46.7553H350.454V39.4707H385V39.4707Z" fill="#0D0D0D"/>
<path d="M51.4996 68.0119H23.9508L13.4654 58.6744L0.0662231 46.7101V46.666L13.8186 34.3926L18.3218 38.4322L51.4996 68.0119Z" fill="#FF002C"/>
<path d="M18.3218 30.377V30.399L13.8186 34.3945L18.3218 30.377Z" fill="#FF002C"/>
<path d="M18.3218 0.707031V23.4437L9.77897 31.0373L0.0662231 39.7125V16.998L18.3218 0.707031Z" fill="#FF002C"/>
<path d="M19.6462 53.7531L13.7524 59.0068L0 46.7334V46.6893L5.89387 41.4355V41.4797L19.6462 53.7531Z" fill="#FF002C"/>
<path d="M51.4996 0.707031V25.32L27.571 46.666L19.6462 53.7519L13.7965 58.9614L13.7524 59.0056L0 46.7322V46.6881L5.89387 41.4343L5.98217 41.346L47.1289 4.6142L51.4996 0.707031Z" fill="#FF002C"/>
</g>
<defs>
<clipPath id="clip0_44_2240">
<rect width="385" height="68.4528" fill="#0D0D0D"/>
</clipPath>
</defs>
</svg>
