<svg width="447" height="78" viewBox="0 0 447 78" fill="none" xmlns="http://www.w3.org/2000/svg">
<path d="M111.12 0.419312V12.0595H116.453L129.151 0.25H144.135L125.553 16.1653L145.659 32.5039H130.844L116.453 20.2288H111.12V32.5039H101.342V0.419312H111.12Z" fill="#FF002C"/>
<path d="M156.793 0.429688V15.2021C156.877 20.2392 156.877 20.2815 157.131 21.5937C157.639 24.1333 159.544 24.6836 167.84 24.6836C174.57 24.6836 176.602 24.3873 177.66 23.2444C178.422 22.4402 178.634 21.5513 178.803 18.7577C178.846 17.5725 178.888 15.9217 178.888 15.2021V0.429688H188.666V15.2021C188.539 22.4825 188.454 22.9905 188.2 25.2762C187.692 28.9164 185.237 31.4984 181.555 32.2603C178.676 32.8529 175.459 33.0222 167.967 33.0222C155.692 33.0222 151.84 32.345 149.428 29.8053C147.904 28.1968 147.354 26.3344 147.1 21.9746C147.043 21.0716 147.001 18.8282 146.973 15.2445V0.429688H156.75H156.793Z" fill="#FF002C"/>
<path d="M210.208 0.429688L227.012 24.345H228.028L227.774 0.429688H237.721V32.5143H220.748L203.859 8.55665H202.801L203.054 32.5143H193.107V0.429688H210.25H210.208Z" fill="#FF002C"/>
<path d="M284.032 14.3492V15.2381C284.032 18.4127 283.82 23.9153 283.693 25.4391C283.312 29.2063 281.238 31.4073 277.386 32.1692C274.127 32.8465 270.698 33.0158 262.021 33.0158C251.016 33.0158 247.587 32.5925 244.878 30.7724C243.101 29.5872 242.169 27.8095 241.788 24.6772C241.577 23.2804 241.492 20.1058 241.492 16C241.492 7.28041 242.296 4.10581 245.005 2.24338C247.333 0.592591 252.413 0 263.672 0C275.608 0 280.053 0.804231 282.169 3.30158C283.524 4.91004 283.905 6.85713 283.947 11.5979H274.169C274.127 9.73543 274.042 9.35447 273.407 8.88887C272.434 8.21162 270.191 8.04231 262.868 8.04231C251.312 8.04231 251.27 8.08464 251.27 16.4232C251.27 21.8412 251.566 23.492 252.624 24.3809C253.358 24.9735 256.744 25.3121 262.783 25.3968C271.926 25.3544 272.688 25.3121 273.788 24.4232C274.339 23.873 274.466 23.1111 274.466 20.8253H261.598V14.4338H283.989L284.032 14.3492Z" fill="#FF002C"/>
<path d="M344.947 0.429688V8.00639H320.778V14.0593H343.762V21.4243H320.778V32.5566H311V0.429688H344.905H344.947Z" fill="#FF002C"/>
<path d="M356.758 0.429688V15.2021C356.842 20.2392 356.842 20.2815 357.096 21.5937C357.646 24.1333 359.509 24.6836 367.805 24.6836C374.535 24.6836 376.567 24.3873 377.625 23.2444C378.387 22.4402 378.599 21.5513 378.768 18.7577C378.81 17.5725 378.853 15.9217 378.853 15.2021V0.429688H388.631V15.2021C388.504 22.4825 388.419 22.9905 388.165 25.2762C387.615 28.9164 385.202 31.4984 381.519 32.2603C378.641 32.8529 375.424 33.0222 367.932 33.0222C355.657 33.0222 351.805 32.345 349.392 29.8053C347.869 28.1968 347.318 26.3344 347.064 21.9746C347.008 21.0716 346.966 18.8282 346.938 15.2445V0.429688H356.715H356.758Z" fill="#FF002C"/>
<path d="M111.121 45.3913V57.0315H116.454L129.153 45.1797H144.094L125.512 61.095L145.618 77.4336H130.803L116.412 65.1585H111.079V77.4336H101.301V45.349H111.079L111.121 45.3913Z" fill="#FF002C"/>
<path d="M186.383 47.1236C188.838 48.986 189.558 52.2029 189.558 61.4304C189.558 70.6579 188.838 73.8748 186.383 75.7796C183.928 77.642 180.88 77.9806 167.632 77.9806C154.383 77.9806 151.124 77.642 148.669 75.7796C146.171 73.8325 145.494 70.6579 145.494 61.2611C145.494 51.8643 146.214 49.0283 148.669 47.1659C151.124 45.3035 154.171 44.9648 167.547 44.9648C180.923 44.9648 183.97 45.3035 186.425 47.1659L186.383 47.1236ZM158.193 53.6844C155.78 54.3193 155.272 55.8008 155.272 62.277C155.272 66.2558 155.611 67.568 156.711 68.4992C158.023 69.515 159.547 69.642 167.632 69.642C175.716 69.642 177.113 69.4304 178.341 68.4992C179.441 67.6103 179.78 66.2135 179.78 62.3193C179.78 57.7055 179.526 55.8855 178.679 54.7426C177.663 53.3458 176.563 53.2188 167.505 53.2188C160.859 53.2188 159.505 53.2611 158.15 53.6421L158.193 53.6844Z" fill="#FF002C"/>
<path d="M211.143 45.3945L220.667 66.2199L230.233 45.3945H247.841V77.4791H238.233L238.487 53.4792H236.836L224.773 77.4791H216.646L204.582 53.4792H202.847L203.101 77.4791H193.492V45.3945H211.185H211.143Z" fill="#FF002C"/>
<path d="M252.326 45.3945H274.337C280.093 45.3945 281.067 45.4369 282.718 45.6485C289.067 46.5374 290.845 49.0771 290.845 57.458C290.845 64.4421 289.659 67.2357 285.935 68.6749C283.776 69.4791 281.575 69.6908 274.421 69.6908H262.104V77.5214H252.326V45.4369V45.3945ZM274.337 61.6061C278.781 61.5638 278.95 61.5638 279.755 61.1405C280.728 60.5903 281.067 59.7437 281.067 57.4157C281.067 55.0876 280.686 54.2411 279.458 53.7755C278.781 53.4792 278.696 53.4792 274.294 53.4368H262.062V61.6061H274.294H274.337Z" fill="#FF002C"/>
<path d="M304.265 45.3945V69.3098H327.08V77.4791H294.021V45.3945H304.265Z" fill="#FF002C"/>
<path d="M364.837 45.39V52.9244H338.932V57.5804H363.525V64.6492H338.932V69.7285H365.006V77.4322H329.281V45.3477H364.794L364.837 45.39Z" fill="#FF002C"/>
<path d="M405.765 45.3945V53.5638H391.458V77.4791H381.215V53.5638H366.908V45.3945H405.723H405.765Z" fill="#FF002C"/>
<path d="M446.146 45.3945V53.5638H431.839V77.4791H421.596V53.5638H407.289V45.3945H446.104H446.146Z" fill="#FF002C"/>
<path d="M77.3592 77.4029H55.6423C52.4079 71.2421 48.2879 65.6973 43.3977 60.8072C41.1644 58.5739 38.7386 56.4561 36.1973 54.5694C42.7046 51.72 48.8654 48.1775 54.5257 43.9805C55.5653 44.9046 56.4895 45.8287 57.4521 46.7913C62.9198 52.2206 67.6559 58.4199 71.5449 65.1198C73.7782 69.0088 75.742 73.1673 77.3592 77.4414V77.4029Z" fill="#FF002C"/>
<path d="M20.9853 0V16.0566C14.5934 19.1755 7.50849 21.0623 0 21.5629V0H20.9853Z" fill="#FF002C"/>
<path d="M76.6639 0C72.2358 9.93431 66.0365 18.906 58.451 26.4915C43.434 41.547 22.9108 51.2118 0.154297 52.2514V32.3058C17.4431 31.3431 32.9221 23.9502 44.3967 12.4371C48.1316 8.70215 51.4816 4.5051 54.2155 0L76.6639 0Z" fill="#FF002C"/>
</svg>
