<?xml version="1.0"?>
<svg fill="#000000" xmlns="http://www.w3.org/2000/svg" viewBox="0 0 24 24" width="48px" height="48px">
  <path d="M 8 3 C 5.243 3 3 5.243 3 8 L 3 16 C 3 18.757 5.243 21 8 21 L 16 21 C 18.757 21 21 18.757 21 16 L 21 8 C 21 5.243 18.757 3 16 3 L 8 3 z M 8 5 L 16 5 C 17.654 5 19 6.346 19 8 L 19 16 C 19 17.654 17.654 19 16 19 L 8 19 C 6.346 19 5 17.654 5 16 L 5 8 C 5 6.346 6.346 5 8 5 z"/>
  
  <!-- Großer innerer Kreis -->
  <circle cx="12" cy="12" r="3" fill="#000000"/>

  <!-- Kleiner innerer Kreis -->
  <circle cx="12" cy="12" r="1.5" fill="#ffffff"/>

  <!-- Kleiner Kreis für Kamera -->
  <circle cx="16" cy="8" r="1" fill="#000000"/>
</svg>
